<svg xmlns="http://www.w3.org/2000/svg" xmlns:xlink="http://www.w3.org/1999/xlink" width="70" height="70" viewBox="0 0 70 70">
  <defs>
    <clipPath id="clip-path">
      <rect id="Rectángulo_35" data-name="Rectángulo 35" width="70" height="70" transform="translate(1574 3258)" fill="#fff" stroke="#707070" stroke-width="1"/>
    </clipPath>
  </defs>
  <g id="Logo_Instagram" data-name="Logo Instagram" transform="translate(-1574 -3258)">
    <g id="Enmascarar_grupo_11" data-name="Enmascarar grupo 11" clip-path="url(#clip-path)">
      <g id="logo-instagram" transform="translate(1569 3253)">
        <path id="Trazado_6" data-name="Trazado 6" d="M54.583,10.833A14.628,14.628,0,0,1,69.167,25.417V54.583A14.628,14.628,0,0,1,54.583,69.167H25.417A14.628,14.628,0,0,1,10.833,54.583V25.417A14.628,14.628,0,0,1,25.417,10.833H54.583m0-5.833H25.417A20.477,20.477,0,0,0,5,25.417V54.583A20.477,20.477,0,0,0,25.417,75H54.583A20.477,20.477,0,0,0,75,54.583V25.417A20.477,20.477,0,0,0,54.583,5Z" fill="#fff"/>
        <path id="Trazado_7" data-name="Trazado 7" d="M58.958,25.417a4.366,4.366,0,1,1,3.1-1.279,4.375,4.375,0,0,1-3.1,1.279Z" fill="#fff"/>
        <path id="Trazado_8" data-name="Trazado 8" d="M40,28.333A11.667,11.667,0,1,1,28.333,40,11.667,11.667,0,0,1,40,28.333M40,22.5A17.5,17.5,0,1,0,57.5,40,17.5,17.5,0,0,0,40,22.5Z" fill="#fff"/>
      </g>
    </g>
  </g>
</svg>
